<?xml version="1.0" standalone="yes"?>
<svg xmlns="http://www.w3.org/2000/svg" width="21" height="20">
<path style="fill:#010101; stroke:none;" d="M0 0L0 5L5 0L0 0z"/>
<path style="fill:#ff5656; stroke:none;" d="M5.01929 1.02778C-7.57728 7.61094 4.81636 25.8284 16.811 18.6821C28.0883 11.9632 16.4745 -4.95892 5.01929 1.02778z"/>
<path style="fill:#ff0101; stroke:none;" d="M16 0L17 1L16 0z"/>
<path style="fill:#010101; stroke:none;" d="M17 0L20 5L21 5L21 0L17 0M18 6L17 6L9 17L5 8L11 12L16 3C14.0568 2.64481 11.9881 2.08475 9.99614 2.3179C-9.01484 4.54299 13.2965 29.1807 18.3071 11.9614C18.9091 9.89271 18.4356 8.02975 18 6z"/>
<path style="fill:#ff4141; stroke:none;" d="M18 2L19 3L18 2z"/>
<path style="fill:#ff0101; stroke:none;" d="M4 4L5 5L4 4z"/>
<path style="fill:#ff6e6e; stroke:none;" d="M7 8L8 9L7 8z"/>
<path style="fill:#ff4141; stroke:none;" d="M18 12L19 13L18 12z"/>
<path style="fill:#ff6e6e; stroke:none;" d="M7 13L8 14L7 13z"/>
<path style="fill:#ff4141; stroke:none;" d="M17 14L18 15L17 14z"/>
<path style="fill:#010101; stroke:none;" d="M0 15L0 20L5 20L5 19L0 15M20 15L16 19L16 20L21 20L20 15z"/>
<path style="fill:#ff4141; stroke:none;" d="M9 16L10 17L9 16z"/>
<path style="fill:#ff6e6e; stroke:none;" d="M15 16L16 17L15 16z"/>
<path style="fill:#ff4141; stroke:none;" d="M2 17L3 18L2 17z"/>
<path style="fill:#ff6e6e; stroke:none;" d="M13 17L14 18L13 17z"/>
</svg>
